<svg width="80" height="80" viewBox="0 0 80 80" fill="none" xmlns="http://www.w3.org/2000/svg">
<g clip-path="url(#clip0_692_5802)">
<path d="M70.2411 52.0165C70.5529 49.8548 70.0132 48.5505 68.9069 46.7906L84.7646 36.0269C85.0824 35.8709 85.0015 34.8485 84.9565 34.8036C84.8186 34.6567 83.8951 34.9265 83.6523 35.1454L67.7136 46.125L44.63 27.9166L36.076 33.4394C34.481 35.6641 34.0972 38.4644 31.7376 40.1944C26.0289 44.38 27.9208 34.9265 28.8083 32.1681C29.5938 29.7185 31.3208 27.7307 33.2906 26.1566C34.7988 24.9513 43.9494 18.8169 45.2537 18.625C48.3329 18.1693 55.9034 22.2199 57.8913 21.6832L72.5857 11.783C73.6261 11.3932 73.3862 10.3888 72.2799 10.5627L57.5045 20.412C53.169 19.9742 47.9191 16.3044 43.6826 17.9594C42.4653 18.4361 41.0021 19.9323 40.1207 20.0942C37.761 20.5289 26.8354 20.424 24.2389 20.1151C23.2825 20.0012 21.7594 18.8619 21.0728 18.1633C20.3952 17.4737 20.8329 16.7811 20.0054 16.2534L8.66003 9.01562L8.34521 9.9211L19.2618 17.1469L19.2408 17.7915L5.65878 42.2872L-4.27143 35.724L-5 36.4556L5.7907 43.6724L7.44873 41.7055L14.4946 47.3992V47.834C10.2611 51.255 12.5907 57.998 18.3923 56.0881C17.7417 59.9619 20.5271 63.3139 24.3888 61.1852C23.8492 65.0859 27.1532 67.6644 30.6852 65.6825C30.3793 72.3537 35.8482 72.3327 39.2752 67.8263C40.2826 67.6284 42.5582 71.2923 46.1471 70.1979C48.087 69.6043 49.4302 67.6704 49.5801 65.6825C53.301 67.9522 56.8359 65.1848 57.0758 61.1852C60.9255 63.0291 64.2086 59.716 63.6719 55.7883C66.3703 57.2575 69.8273 54.8529 70.2381 52.0165H70.2411ZM18.2095 54.8529C14.9564 56.5289 12.3599 53.1798 13.9669 50.0107C14.3597 49.2341 19.0669 44.6348 19.8075 44.4639C22.9017 43.7444 24.5927 46.6437 23.5164 49.3691C23.2825 49.9597 18.7881 54.559 18.2095 54.8559V54.8529ZM24.194 59.9379C20.668 62.1266 18.2694 58.7596 19.9334 55.3776C20.5571 54.1093 24.4788 50.0827 25.819 49.8578C28.7213 49.3751 30.3374 52.4723 29.1231 54.9698C28.8322 55.5695 24.8506 59.5271 24.194 59.9349V59.9379ZM30.1965 64.7381C27.1382 66.558 24.2899 63.4758 25.831 60.3726C26.2268 59.5721 30.4303 55.4315 31.2039 55.2546C34.1721 54.571 36.2679 57.2425 34.9517 59.9019C34.6369 60.5346 30.8501 64.3513 30.1965 64.7381ZM38.7864 66.4351C37.6381 68.0961 34.9247 70.8995 32.9339 69.2894C30.1485 67.0378 33.5305 61.9227 36.0131 61.2601C39.2931 60.3876 40.3455 64.1864 38.7894 66.4351H38.7864ZM64.4904 54.8229C63.8008 54.682 62.9883 54.0194 62.3767 53.6356C57.8073 50.7603 53.4509 46.7126 48.8276 43.8043C48.4468 44.1101 48.2759 44.275 48.4198 44.8027C48.6867 45.7742 60.3828 53.1259 61.876 54.7359C63.6749 57.2934 61.4232 61.0143 58.2631 60.1478L44.3362 50.6913L44.1713 51.7497C47.3075 54.3432 51.49 56.4719 54.5153 59.0954C57.1897 61.416 54.959 65.5326 51.2532 65.0589C48.8546 64.7531 41.5089 57.998 40.4385 58.1869C39.9258 58.6307 39.8148 58.6666 40.2736 59.2453C41.4789 60.7594 47.9131 63.8836 48.3269 65.3018C48.8306 67.0318 46.6479 69.2235 44.9269 69.3014C43.1189 69.3824 41.4219 67.6554 40.1207 66.588C41.4639 63.5388 40.2316 59.3263 36.3878 59.9889C37.0235 55.9472 34.6159 52.916 30.3883 54.2892C31.5097 50.7752 28.1996 47.6271 24.6917 48.8923C25.894 45.6752 22.9797 42.4371 19.5856 43.3396C18.1615 43.7204 15.8798 46.8775 15.2892 46.7726L8.24327 40.5842L19.5946 19.3476C20.4372 18.2532 22.6199 21.3084 23.3425 21.3084H38.4836L31.7436 25.8118C28.3255 28.6092 26.6315 33.9401 26.4876 38.2576C26.2837 44.35 31.9654 42.7279 34.5289 38.7882C35.3175 37.574 35.8901 35.3912 36.4808 34.5907C36.7536 34.2189 43.5896 29.7815 44.2043 29.5476C44.4261 29.4637 44.606 29.3318 44.8579 29.4457L68.595 48.6165C70.1242 51.5908 68.1213 55.5695 64.4904 54.8229Z" fill="white"/>
</g>
<defs>
<clipPath id="clip0_692_5802">
<rect width="80" height="80" rx="4" fill="white"/>
</clipPath>
</defs>
</svg>
