<svg width="80" height="80" viewBox="0 0 80 80" fill="none" xmlns="http://www.w3.org/2000/svg">
<path d="M36.035 4.19112C20.0085 5.82002 7.62138 21.073 6.45935 36.6395C3.76383 72.7581 48.1223 91.4801 67.9348 59.9484C83.2662 35.5559 66.156 1.12757 36.035 4.19112ZM7.82585 43.4448C6.44912 26.1028 17.6946 7.42165 36.035 5.55421C67.5906 2.34072 83.273 40.739 63.699 63.547C44.4112 86.021 10.0545 71.5654 7.82585 43.4448Z" fill="white"/>
<path d="M45.8786 39.8086C44.2361 39.1679 42.2903 39.202 40.8727 38.3398V23.5162C45.2141 23.6593 48.2913 26.3071 48.7343 30.6554L49.7328 30.6758C50.2235 25.7244 45.4527 22.2076 40.8761 22.1531L40.5523 17.1949L39.5096 17.0449V22.1565C26.8158 22.4871 26.5295 39.3451 39.5096 39.5359V56.5746C34.3912 56.5473 29.8146 53.4736 29.6238 48.0553L28.5912 48.2154C27.8449 48.7232 29.0444 51.7322 29.4363 52.5024C31.3004 56.1895 35.56 57.8866 39.5062 57.9377V62.7085H40.8693V57.9377C51.7536 59.0827 56.1461 43.8161 45.8752 39.812L45.8786 39.8086ZM39.5096 38.1694C28.2675 37.9275 28.4345 23.7956 39.5096 23.5162V38.1694ZM40.8727 56.5712V40.2141C53.5426 40.1868 53.5119 56.7995 40.8727 56.5712Z" fill="white"/>
</svg>
