<svg width="80" height="80" viewBox="0 0 80 80" fill="none" xmlns="http://www.w3.org/2000/svg">
<path d="M20.567 67.0396C16.14 63.7829 13.0397 59.1016 10.7838 54.1595H22.5198C22.3829 55.2189 24.2802 61.289 24.9582 61.3119C25.0267 61.3119 26.0275 60.9793 25.7798 60.5262L23.8238 54.1595L28.241 53.8498L28.3845 52.8522H23.4945C22.5296 48.0894 22.1677 43.2026 22.1742 38.329L23.4945 26.7723H39.4684C39.7944 28.9402 39.087 31.9655 39.3315 33.9769C39.4815 35.2092 40.7724 34.4039 40.7724 34.1073V26.7723H56.4203C58.2003 35.3819 58.0699 44.1904 56.7463 52.8522H52.0194L51.6901 53.5042C52.1824 54.655 55.2957 53.9867 56.4203 54.1595L54.4676 61.0022L55.7325 60.9663L57.7243 54.1595H69.4603L65.356 61.3021C64.9582 62.4822 59.6673 66.9386 59.6673 67.3559C59.6575 69.0967 61.7015 67.2157 62.2916 66.7136C82.4578 49.6509 74.2492 11.7145 47.9509 5.09344C14.5165 -3.3271 -6.42236 38.9484 15.3576 64.0926C15.8466 64.6599 20.5442 69.778 20.567 67.0396ZM69.6265 52.8555H58.0536C59.4163 44.2491 59.5923 35.3233 57.7276 26.7756H69.7895C72.704 35.0853 73.1506 44.712 69.6265 52.8555ZM69.1375 25.4716H57.4016C56.1595 19.6721 53.8971 14.0193 50.2199 9.34446L47.1359 6.23443C56.9289 8.85872 65.4146 15.9785 69.1375 25.4716ZM40.9354 5.25644C49.6624 6.34853 54.3274 18.0617 56.0976 25.4683H40.4497C40.3617 25.2304 40.7757 25.0771 40.7757 24.9793V5.74869C40.7757 5.63133 39.9281 5.13256 40.9354 5.2597V5.25644ZM39.4717 25.4716H23.8238C26.2948 17.3542 29.7667 6.68105 39.4717 5.2597V25.4716ZM32.7855 6.23443C32.4366 7.30371 31.1685 7.78292 30.3535 8.69246C27.9639 11.3526 25.8156 15.5254 24.5573 18.8701C23.7423 21.0445 23.2891 23.4145 22.3568 25.4716H10.7838C14.3633 15.8709 23.0023 8.85546 32.7855 6.23443ZM10.2948 26.7756H22.1938C20.704 35.3787 20.215 44.285 22.1938 52.8555H10.1318C7.14895 44.4512 6.54912 35.0005 10.2948 26.7756Z" fill="white"/>
<path d="M46.5304 54.3687C51.8311 49.3613 50.2337 39.0533 43.052 36.7256C33.5589 33.6515 27.2508 45.0842 32.4961 52.8234C35.6355 57.4591 42.4261 58.2448 46.5304 54.3687ZM39.0683 37.6189C50.0381 36.1519 51.5084 54.059 41.5622 55.4347C29.9305 57.0418 28.607 39.0174 39.0683 37.6189Z" fill="white"/>
<path d="M56.2326 64.6179C49.7061 55.9887 29.4519 55.7279 23.6915 65.2699C23.121 66.2185 21.8691 69.3318 21.8691 70.2935V75.9985L23.1308 75.7931C21.892 65.547 28.4413 60.1973 38.0484 59.4149C44.1609 58.9162 57.077 62.0555 57.077 69.9675V75.9985L58.3386 75.7931C58.4755 71.6986 58.8243 68.0441 56.2326 64.6179Z" fill="white"/>
</svg>
