<svg width="80" height="80" viewBox="0 0 80 80" fill="none" xmlns="http://www.w3.org/2000/svg">
<path d="M25.2574 62.8454C26.0908 67.2619 24.3068 72.7434 29.2407 75.108C31.4459 76.167 37.6374 76.0828 40.2427 75.8602C48.8801 75.1171 45.7212 66.4045 47.4661 60.8207C49.5419 54.178 55.0625 50.4776 58.429 44.7073C62.689 43.9913 69.0249 46.4672 69.5785 40.2126C70.0869 34.4664 69.2927 27.8206 69.425 21.9902C67.8155 17.33 62.5898 19.0178 58.778 18.6417C55.932 11.8095 49.0997 6.34004 41.8914 4.6944C20.3265 -0.218464 4.47781 21.8699 12.2578 41.5484C15.4407 49.6021 23.5697 53.9132 25.2574 62.8454ZM43.9462 72.948C43.4287 73.5376 42.5021 74.1363 41.753 74.365C39.8877 74.9426 32.0115 74.8704 30.1613 74.1874C28.4705 73.5647 27.2791 71.9943 26.861 70.2644C26.6413 69.3528 27.5198 70.135 27.595 70.135C33.3051 70.135 39.0363 70.2433 44.7434 70.135C44.7825 70.135 45.4775 69.5514 45.4895 70.2824C45.4895 70.4359 44.1838 72.6772 43.9462 72.9449V72.948ZM45.4955 68.9316H26.9933L26.6564 68.4924L26.5421 64.7197H45.4955V68.9316ZM65.8028 19.8933C66.0194 19.8933 67.3492 20.8079 67.5959 21.1087C68.1284 21.7555 68.2969 22.5287 68.3751 23.338C68.9076 28.8315 67.9629 35.1944 68.342 40.7842C68.4322 41.5273 66.579 43.3595 66.1037 43.3595H59.0337C62.659 36.0128 62.4784 27.4686 59.6354 19.8933H65.8028ZM57.7822 43.3113L45.4053 43.7235C44.0515 44.262 40.9106 49.0967 40.0953 49.2621C38.0224 49.6863 39.268 45.1255 38.7445 43.9431C38.1699 43.1188 33.0163 44.8607 32.3274 41.0339C32.6974 35.399 31.5903 28.5337 32.2492 23.0462C32.4598 21.2862 33.6421 20.1009 35.4081 19.8873L58.1342 20.0377C61.6992 27.2641 61.2149 36.118 57.7792 43.3113H57.7822ZM21.4547 10.1398C33.4195 0.786371 51.0612 5.21486 57.5325 18.6899H34.8184C33.2299 18.6899 31.3195 20.9162 31.0759 22.4685C30.2245 27.9109 31.6565 35.4171 31.0759 41.0821C32.0356 44.3493 34.7913 45.2939 37.9773 44.8607V49.223C37.9773 49.6412 39.0092 50.4354 39.4124 50.5137C41.6266 50.9439 43.9341 45.9739 45.7121 44.9209L56.9308 44.5599C55.604 47.785 52.6768 49.8548 50.619 52.5354C48.2904 55.5709 46.016 59.6595 45.7994 63.5133L26.5721 63.4832C26.0396 60.6733 24.9957 57.9657 23.5877 55.4897C21.2501 51.3801 17.5467 48.6123 15.17 44.6531C8.39186 33.3532 11.0784 18.2536 21.4547 10.1398Z" fill="white"/>
</svg>
